<svg width="55" height="39" viewBox="0 0 55 39" fill="none" xmlns="http://www.w3.org/2000/svg">
<path d="M46.2 16.9406C46.5523 16.0092 46.75 14.9906 46.75 13.9286C46.75 9.31473 43.0547 5.57143 38.5 5.57143C36.807 5.57143 35.2258 6.09375 33.9195 6.9817C31.5391 2.80312 27.0961 0 22 0C14.4031 0 8.25 6.23304 8.25 13.9286C8.25 14.1636 8.25859 14.3987 8.26719 14.6337C3.45469 16.3487 0 20.9973 0 26.4643C0 33.385 5.54297 39 12.375 39H44C50.0758 39 55 34.0118 55 27.8571C55 22.4685 51.2187 17.9679 46.2 16.9406ZM33.8078 22.2857H28.1875V32.0357C28.1875 32.8018 27.5688 33.4286 26.8125 33.4286H22.6875C21.9312 33.4286 21.3125 32.8018 21.3125 32.0357V22.2857H15.6922C14.4633 22.2857 13.8531 20.7884 14.7211 19.9092L23.7789 10.7337C24.3117 10.194 25.1883 10.194 25.7211 10.7337L34.7789 19.9092C35.6469 20.7884 35.0281 22.2857 33.8078 22.2857Z" fill="#699BF7"/>
</svg>
